<mxfile host="" modified="2020-06-10T10:09:33.139Z" agent="5.0 (X11; Linux x86_64) AppleWebKit/537.36 (KHTML, like Gecko) Code/1.45.1 Chrome/78.0.3904.130 Electron/7.2.4 Safari/537.36" etag="u4HXyEnYNJJmtz0qWeew" version="13.1.3">
    <diagram id="6hGFLwfOUW9BJ-s0fimq" name="Page-1">
        <mxGraphModel dx="1702" dy="1131" grid="1" gridSize="10" guides="1" tooltips="1" connect="1" arrows="1" fold="1" page="1" pageScale="1" pageWidth="827" pageHeight="1169" math="0" shadow="0">
            <root>
                <mxCell id="0"/>
                <mxCell id="1" parent="0"/>
                <mxCell id="14" style="edgeStyle=orthogonalEdgeStyle;rounded=0;orthogonalLoop=1;jettySize=auto;html=1;exitX=0.25;exitY=1;exitDx=0;exitDy=0;entryX=0.5;entryY=0;entryDx=0;entryDy=0;endArrow=none;endFill=0;" parent="1" source="21" target="13" edge="1">
                    <mxGeometry relative="1" as="geometry">
                        <mxPoint x="167.5" y="590" as="sourcePoint"/>
                    </mxGeometry>
                </mxCell>
                <mxCell id="16" style="rounded=0;orthogonalLoop=1;jettySize=auto;html=1;exitX=0.75;exitY=1;exitDx=0;exitDy=0;entryX=0.5;entryY=0;entryDx=0;entryDy=0;endArrow=none;endFill=0;edgeStyle=orthogonalEdgeStyle;" parent="1" source="21" target="12" edge="1">
                    <mxGeometry relative="1" as="geometry">
                        <mxPoint x="222.5" y="590" as="sourcePoint"/>
                    </mxGeometry>
                </mxCell>
                <mxCell id="12" value="Machine 2" style="html=1;" parent="1" vertex="1">
                    <mxGeometry x="280" y="620" width="110" height="50" as="geometry"/>
                </mxCell>
                <mxCell id="13" value="Machine 1" style="html=1;" parent="1" vertex="1">
                    <mxGeometry x="140" y="620" width="110" height="50" as="geometry"/>
                </mxCell>
                <mxCell id="20" value="leaf" style="shape=umlFrame;whiteSpace=wrap;html=1;" vertex="1" parent="1">
                    <mxGeometry x="120" y="360" width="300" height="150" as="geometry"/>
                </mxCell>
                <mxCell id="21" value="VRF 1" style="html=1;" vertex="1" parent="1">
                    <mxGeometry x="150" y="430" width="110" height="50" as="geometry"/>
                </mxCell>
                <mxCell id="22" value="VRF 2" style="html=1;" vertex="1" parent="1">
                    <mxGeometry x="290" y="430" width="110" height="50" as="geometry"/>
                </mxCell>
                <mxCell id="24" style="edgeStyle=orthogonalEdgeStyle;rounded=0;orthogonalLoop=1;jettySize=auto;html=1;entryX=0.5;entryY=1;entryDx=0;entryDy=0;exitX=0.5;exitY=0;exitDx=0;exitDy=0;endArrow=none;endFill=0;" edge="1" parent="1" source="23" target="22">
                    <mxGeometry relative="1" as="geometry"/>
                </mxCell>
                <mxCell id="23" value="Machine 3" style="html=1;" vertex="1" parent="1">
                    <mxGeometry x="440" y="620" width="110" height="50" as="geometry"/>
                </mxCell>
            </root>
        </mxGraphModel>
    </diagram>
</mxfile>